<?xml version="1.0" standalone="no"?>
<!DOCTYPE svg PUBLIC "-//W3C//DTD SVG 20010904//EN"
 "http://www.w3.org/TR/2001/REC-SVG-20010904/DTD/svg10.dtd">
<svg version="1.0" xmlns="http://www.w3.org/2000/svg"
 width="1024.000000pt" height="1024.000000pt" viewBox="0 0 1024.000000 1024.000000"
 preserveAspectRatio="xMidYMid meet">

<g transform="translate(0.000000,1024.000000) scale(0.100000,-0.100000)"
fill="#000000" stroke="none">
<path d="M1993 6423 c4 -159 7 -811 7 -1450 l0 -1163 865 0 865 0 0 245 0 245
-595 0 -595 0 0 375 0 375 500 0 500 0 0 245 0 245 -500 0 -500 0 0 340 0 340
585 0 585 0 0 245 0 245 -862 0 -861 0 6 -287z"/>
<path d="M4160 5260 l0 -1450 270 0 270 0 0 620 0 620 475 0 475 0 0 -620 0
-620 270 0 270 0 0 1450 0 1450 -270 0 -270 0 0 -585 0 -585 -475 0 -475 0 0
585 0 585 -270 0 -270 0 0 -1450z"/>
<path d="M7495 6233 c-43 -2 -85 -8 -91 -14 -7 -6 -18 -51 -25 -101 l-13 -91
-90 -43 c-49 -24 -95 -44 -103 -44 -7 0 -45 25 -84 55 -39 30 -80 55 -92 55
-27 0 -247 -217 -247 -244 0 -11 23 -54 50 -97 l51 -76 -31 -78 c-54 -136 -47
-129 -141 -143 -46 -6 -89 -18 -96 -25 -9 -9 -13 -57 -14 -172 -1 -182 -4
-177 90 -195 83 -16 100 -26 117 -68 9 -20 28 -65 44 -98 l28 -62 -49 -73
c-27 -41 -49 -85 -49 -99 0 -20 27 -51 114 -133 63 -59 123 -107 133 -107 10
0 51 22 91 49 l73 48 101 -38 c56 -22 105 -42 109 -46 4 -5 12 -48 18 -96 6
-48 13 -92 16 -97 4 -6 72 -10 156 -10 179 0 183 2 193 101 13 121 6 112 111
147 51 18 102 32 112 32 10 0 45 -21 77 -45 35 -26 70 -45 85 -45 19 0 52 27
133 109 60 60 108 116 108 126 0 10 -23 55 -51 100 l-50 83 34 68 c19 38 40
85 46 105 12 36 12 37 99 53 56 10 91 22 99 33 9 12 13 63 13 170 0 180 4 174
-127 194 l-81 13 -37 98 -37 97 46 80 c25 44 46 89 46 99 0 25 -223 242 -249
242 -11 0 -48 -25 -84 -55 -35 -30 -72 -55 -81 -55 -9 0 -57 20 -106 45 -97
49 -94 45 -104 147 -7 70 -13 86 -34 92 -29 8 -144 12 -227 9z m375 -508 c37
-19 67 -59 81 -104 6 -23 9 -176 7 -437 l-3 -400 -27 -41 c-49 -74 -67 -78
-369 -78 l-265 0 -41 27 c-24 16 -49 44 -62 70 -20 43 -21 57 -21 446 0 259 4
411 11 429 15 40 48 73 94 95 37 17 58 18 304 13 200 -5 270 -9 291 -20z"/>
<path d="M7311 5604 c-19 -24 -20 -37 -17 -406 l3 -381 23 -19 c16 -13 35 -18
59 -16 34 3 36 5 41 47 10 85 72 83 78 -3 l3 -47 62 3 62 3 3 40 c4 47 26 69
53 54 11 -5 19 -20 19 -32 0 -12 3 -33 7 -46 5 -21 10 -23 49 -18 78 8 74 -17
74 422 0 367 -1 393 -18 408 -16 15 -49 17 -250 17 l-231 0 -20 -26z"/>
</g>
</svg>
